<?xml version="1.0" encoding="UTF-8"?>
<svg id="Layer_1" data-name="Layer 1" xmlns="http://www.w3.org/2000/svg" viewBox="0 0 411.1 687.03">
  <defs>
    <style>
      .cls-1 {
        fill: #231f20;
      }
    </style>
  </defs>
  <g>
    <g>
      <path class="cls-1" d="M357.96,547.93v29.81h-16.89v-29.37l-21.58-63.29h17.18l12.63,47.57,11.89-47.57h17.18l-20.41,62.85Z"/>
      <path class="cls-1" d="M318.32,498h-16.3v79.73h-16.89v-79.73h-16.15v-12.92h49.34v12.92Z"/>
      <path class="cls-1" d="M246.08,541.03c0-3.08-.88-3.96-4.11-3.96h-11.89c-11.01,0-15.12-5.43-15.12-14.68v-22.76c0-9.25,4.55-14.54,15.86-14.54h16.15c11.16,0,15.86,5.29,15.86,14.54v12.92h-17.03v-10.57c0-3.08-.88-3.96-4.11-3.96h-5.58c-3.23,0-4.26.88-4.26,3.96v18.65c0,3.08,1.03,3.96,4.26,3.96h11.6c11.01,0,15.42,5.14,15.42,14.39v24.23c0,9.25-4.7,14.54-16,14.54h-15.86c-11.31,0-16.01-5.29-16.01-14.54v-12.77h16.89v10.43c0,3.08,1.03,3.96,4.26,3.96h5.58c3.23,0,4.11-.88,4.11-3.96v-19.82Z"/>
      <path class="cls-1" d="M202.76,485.08v78.12c0,9.25-4.7,14.54-16,14.54h-17.91c-11.31,0-16.01-5.29-16.01-14.54v-78.12h16.89v75.77c0,3.08.88,3.96,4.11,3.96h7.78c3.23,0,4.26-.88,4.26-3.96v-75.77h16.89Z"/>
      <path class="cls-1" d="M112.31,541.61h-5.58v36.12h-16.89v-92.65h34.07c11.31,0,16.01,5.29,16.01,14.54v27.46c0,7.64-3.23,12.63-10.72,14.1l15.42,36.56h-18.21l-14.1-36.12ZM106.73,529.13h12.19c3.23,0,4.11-.88,4.11-3.96v-23.2c0-3.08-.88-3.96-4.11-3.96h-12.19v31.13Z"/>
      <path class="cls-1" d="M82.07,498h-16.3v79.73h-16.89v-79.73h-16.15v-12.92h49.34v12.92Z"/>
    </g>
    <g>
      <path class="cls-1" d="M307.67,674.11v12.92h-41.55v-92.65h16.89v79.73h24.67Z"/>
      <path class="cls-1" d="M257.6,594.38l-16.3,92.65h-21.44l-10.43-65.34-10.28,65.34h-21.44l-16.3-92.65h17.47l9.54,75.18,12.19-75.18h17.77l12.04,75.18,10.43-75.18h16.74Z"/>
      <path class="cls-1" d="M137.35,594.38c11.31,0,16.01,5.29,16.01,14.54v63.58c0,9.25-4.7,14.54-16.01,14.54h-17.91c-11.31,0-16-5.29-16-14.54v-63.58c0-9.25,4.7-14.54,16-14.54h17.91ZM136.47,611.27c0-3.08-.88-3.96-4.11-3.96h-7.78c-3.23,0-4.26.88-4.26,3.96v58.88c0,3.08,1.03,3.96,4.26,3.96h7.78c3.23,0,4.11-.88,4.11-3.96v-58.88Z"/>
    </g>
  </g>
  <g>
    <path d="M73.04,1.5l2-1.01c16.39,15.72,39.07,21.41,60.81,25.71,2.98,16.57,12.29,31.09,22.22,44.27,11.14,14.79,30.98,28.85,22.74,49.8-7.62,19.38-36.29,21.91-45.65,2.11-8.13-17.21,4.29-37.16,23.33-36.41,3.81.15,7,2.64,10.55,2.54-28.29-20.03-61.77-33.85-82.99-62.5,1.75,13.8,9.99,25.22,18.74,35.49-9.73,13.22-18.04,27.95-20.92,44.33l-55.82,19.68v105.5c5.18-6.12,7.89-14.59,11.83-21.67,11.56-20.77,26.56-41.37,44.16-57.33l3.81,21.36c-38.8,43.15-60.36,99.19-58.79,157.64,8.6-5.71,16.58-14.93,25.07-20.41,1.23-.79,2.27-1.87,3.91-1.58,2.24,15.46,5.73,31.2,11.98,45.52,17.06,10.77,33.44,22.76,50.5,33.5,1.83,1.15,13.57,8.85,14.53,7.96-33.24-52.48-46.1-116.65-42.03-178.47-6.52-8.05-9.42-10.95-4.19-21.26.48-.94-.26-1.61,1.7-1.25l15.3,16.69c-6.3,73.85,10.64,148.69,59.82,205.19l39.9,25.07c11.44-8.97,29.9-16.05,40.02-25.94,6.56-6.41,15.8-20.11,20.89-28.11,33.24-52.24,43.22-114.9,38.79-176.21l15.3-16.7c1.96-.35,1.22.32,1.71,1.26,1.03,2,3.09,9.14,2.81,11.19-.38,2.74-6.36,6.7-7.01,10.07-1.96,10.25.55,29.29-.03,40.97-.46,9.29-1.8,20.59-3.13,29.87-5.45,38.05-19.18,74.82-38.86,107.63,1.56.37,2.31-.3,3.52-.97,21.24-11.77,40.33-28.47,61.52-40.48,5.42-15.07,9.53-30.69,11.97-46.54l28.98,21.99c-.51-23.49-3.23-46.18-9.73-68.76-9.42-32.71-26.28-61.85-48.84-87.19l3.06-21.06c1.29-1.73,1.44-.33,2.52.52,12.84,10.11,31.96,38.2,40.17,52.83l12.83,24.67v-105.5c-.77-1.05-1.9-1.43-2.99-2.01-13.17-6.93-35.75-9.95-49.02-16.98-1.2-.63-2.04-.84-2.88-2.12-2.14-3.25-4.82-15.51-7.24-20.76-3.72-8.06-9.13-14.54-13.76-22,9.14-10.05,16.34-22.12,18.89-35.64-21.5,28.6-54.5,42.48-82.99,62.5,3.63.4,7.05-2.19,10.64-2.44,19.04-1.34,32.55,20.68,22.56,37.64-10.74,18.23-38.44,15.49-45.26-4.16-7.23-20.87,9.06-31.05,20.02-45.08,11.19-14.32,21.42-30.19,25.26-48.24,22.05-4,44.71-10.58,61.28-26.23.29-.13,1.5,2.35,1.5,2.5v17c0,4.85-4.51,19.41-6.52,24.48-2.51,6.35-6.51,13.02-10.33,18.7-.17,1.17,6.61,12.21,9.3,12.37l80.61,29.56-11.5,233.46-1.54,3.46-192.52,127.44c-65.68-41.56-130.19-85.09-194.52-128.68L0,104.67l83.79-30.92c.48-3,4.21-6.49,4.84-8.74.9-3.22-7.5-16.14-9.37-20.75-2.36-5.83-6.23-17.77-6.23-23.77V1.5Z"/>
    <path d="M204.06,181.99l-12.59-17.97c-7.8,4.96-14.65,9.56-23.67,12.24-55.24,16.39-98.58-41.16-68.56-90.56,4.46-7.33,6.38-12.17,13.73-4.1-17.36,32.48-.23,85.65,42.57,81.39,9.53-.95,21.91-7.66,28.98-14.02,10.15-9.15,1.77-10.73,5.07-18.93.66-1.63,14.79-17.02,15.96-17.02l15.98,17c2.77,6.46-3.99,10.01,2.51,16.5,7.51,7.49,19.93,15.12,30.62,16.38,43.35,5.12,60.78-48.57,43.47-81.29,2.08-1.55,5.44-5.73,7.94-4.14,3.69,5.88,8.16,11.79,10.74,18.28,24.49,61.61-47.43,108.62-97.19,68.28-1.42.33-9.94,13.81-12.06,16-1.03,1.06-1.74,2.33-3.5,1.98ZM206.02,174.99c1.39-8.26,11.78-27.02,11.02-34.48-.32-3.1-9.41-9.81-12.44-9.52-2.03.19-11.32,7.2-11.34,9.29l12.76,34.71Z"/>
    <path d="M206.02,101c-1.09.83-5.74-9.64-6.58-10.91-13.21-20.22-30.01-28.48-46.06-44.44-2.05-2.03-9.51-9.11-7.89-11.66,36.13-21.26,83.89-20.99,120.09-.02,1.39,2.15-5.15,9.07-7.06,11.03-10.49,10.76-24.58,18.86-35.01,29.99-6.69,7.15-13.7,17.06-17.5,26.01Z"/>
    <path d="M163.02,293.99c-3.45,2.4-14.81-15.02-18.47-16.75l-19.03,11.63-10.46-18.4,39.57-42.43,27.39,30.44c-6.86,11.55-16,21.98-19,35.52Z"/>
    <path d="M266.46,239.58c9.75,10.21,20.5,20.05,29.42,30.73-.14,1.56-8.54,16.55-9.85,17.24-3.97,2.09-16.2-9.06-20.42-10.54l-17.56,17.98c-1.44-4.98-3.17-10.4-5.47-15.04-2.09-4.21-14.07-19.72-13.41-22.25l26.37-29.68c4.06,3.44,7.28,7.75,10.92,11.56Z"/>
    <polygon points="205.54 286.02 229.02 314.47 205.54 346.98 181.27 314.49 205.54 286.02"/>
    <path d="M130.05,332c.79-1.07,17.56,13.77,22.58,14.01,4.63.22,14.68-9.58,18.41-12.51,1.07-.85,1.22-2.24,2.52-.52,3.16,13.34.43,26.24-5.81,38.23-1.3,2.51-5.63,10.84-8.21,10.83-3.01-.02-16.63-16.67-18.92-20.13-5.73-8.68-10.88-19.31-10.58-29.91Z"/>
    <path d="M281.03,332c-.18,14.84-12.55,35.38-23.46,45.03-1.55,1.37-6.58,5.93-8.41,4.86-10.05-15.19-16.18-31.29-12.1-49.88l20.48,14.65,23.5-14.65Z"/>
    <path d="M212.06,197.01c2.12-1.51,10.43,11.77,9.83,14.27l-16.34,22.72-17.18-23.49,7.69-13.5c1.96-1.34,7.15,7.99,9.48,8.97l6.52-8.97Z"/>
  </g>
</svg>